<mxfile host="app.diagrams.net" modified="2022-05-04T02:07:29.370Z" agent="5.0 (Windows NT 10.0; Win64; x64) AppleWebKit/537.36 (KHTML, like Gecko) Chrome/100.0.4896.88 Safari/537.36" etag="aDSGd30GAyOr5uMO1_2o" version="17.5.0" type="github">
  <diagram id="HZM6RfbCKHkHKNfwuDTF" name="Page-1">
    <mxGraphModel dx="496" dy="724" grid="1" gridSize="10" guides="1" tooltips="1" connect="1" arrows="1" fold="1" page="1" pageScale="1" pageWidth="827" pageHeight="1169" math="0" shadow="0">
      <root>
        <mxCell id="0" />
        <mxCell id="1" parent="0" />
        <mxCell id="itdoG1IwBEk0h6hR36ms-1" value="Student" style="swimlane;childLayout=stackLayout;horizontal=1;startSize=30;horizontalStack=0;rounded=1;fontSize=14;fontStyle=0;strokeWidth=2;resizeParent=0;resizeLast=1;shadow=0;dashed=0;align=center;" vertex="1" parent="1">
          <mxGeometry x="10" y="40" width="160" height="120" as="geometry" />
        </mxCell>
        <mxCell id="itdoG1IwBEk0h6hR36ms-2" value="firstName (string)&#xa;lastName (string)&#xa;email (string)&#xa;dateRegistered (dateTime)" style="align=left;strokeColor=none;fillColor=none;spacingLeft=4;fontSize=12;verticalAlign=top;resizable=0;rotatable=0;part=1;" vertex="1" parent="itdoG1IwBEk0h6hR36ms-1">
          <mxGeometry y="30" width="160" height="90" as="geometry" />
        </mxCell>
        <mxCell id="itdoG1IwBEk0h6hR36ms-3" value="Course" style="swimlane;childLayout=stackLayout;horizontal=1;startSize=30;horizontalStack=0;rounded=1;fontSize=14;fontStyle=0;strokeWidth=2;resizeParent=0;resizeLast=1;shadow=0;dashed=0;align=center;" vertex="1" parent="1">
          <mxGeometry x="290" y="40" width="160" height="120" as="geometry" />
        </mxCell>
        <mxCell id="itdoG1IwBEk0h6hR36ms-4" value="title (string)&#xa;price (float)&#xa;instructor (string)&#xa;tags (string)" style="align=left;strokeColor=none;fillColor=none;spacingLeft=4;fontSize=12;verticalAlign=top;resizable=0;rotatable=0;part=1;" vertex="1" parent="itdoG1IwBEk0h6hR36ms-3">
          <mxGeometry y="30" width="160" height="90" as="geometry" />
        </mxCell>
        <mxCell id="itdoG1IwBEk0h6hR36ms-6" value="Enrollment" style="swimlane;childLayout=stackLayout;horizontal=1;startSize=30;horizontalStack=0;rounded=1;fontSize=14;fontStyle=0;strokeWidth=2;resizeParent=0;resizeLast=1;shadow=0;dashed=0;align=center;" vertex="1" parent="1">
          <mxGeometry x="160" y="230" width="160" height="120" as="geometry" />
        </mxCell>
        <mxCell id="itdoG1IwBEk0h6hR36ms-7" value="date (dateTime)&#xa;price (float)" style="align=left;strokeColor=none;fillColor=none;spacingLeft=4;fontSize=12;verticalAlign=top;resizable=0;rotatable=0;part=1;" vertex="1" parent="itdoG1IwBEk0h6hR36ms-6">
          <mxGeometry y="30" width="160" height="90" as="geometry" />
        </mxCell>
        <mxCell id="itdoG1IwBEk0h6hR36ms-10" value="" style="edgeStyle=entityRelationEdgeStyle;fontSize=12;html=1;endArrow=ERoneToMany;rounded=0;exitX=1.025;exitY=0.389;exitDx=0;exitDy=0;exitPerimeter=0;" edge="1" parent="1" source="itdoG1IwBEk0h6hR36ms-2">
          <mxGeometry width="100" height="100" relative="1" as="geometry">
            <mxPoint x="20" y="290" as="sourcePoint" />
            <mxPoint x="150" y="300" as="targetPoint" />
          </mxGeometry>
        </mxCell>
        <mxCell id="itdoG1IwBEk0h6hR36ms-11" value="" style="edgeStyle=entityRelationEdgeStyle;fontSize=12;html=1;endArrow=ERoneToMany;rounded=0;entryX=1;entryY=0.5;entryDx=0;entryDy=0;exitX=0.5;exitY=1;exitDx=0;exitDy=0;" edge="1" parent="1" source="itdoG1IwBEk0h6hR36ms-4" target="itdoG1IwBEk0h6hR36ms-7">
          <mxGeometry width="100" height="100" relative="1" as="geometry">
            <mxPoint x="460" y="103" as="sourcePoint" />
            <mxPoint x="430" y="240" as="targetPoint" />
          </mxGeometry>
        </mxCell>
      </root>
    </mxGraphModel>
  </diagram>
</mxfile>
